<?xml version="1.0" ?><!DOCTYPE svg  PUBLIC '-//W3C//DTD SVG 1.1//EN'  'http://www.w3.org/Graphics/SVG/1.1/DTD/svg11.dtd'><svg height="30px" style="enable-background:new 0 0 512 512;" version="1.1" viewBox="0 0 512 512" width="30px" xml:space="preserve" xmlns="http://www.w3.org/2000/svg" xmlns:xlink="http://www.w3.org/1999/xlink"><g id="_x33_89-xing"><g><path d="M225.909,208.727c-1.848,3.389-25.869,45.579-71.961,126.779    c-5.03,8.52-11.088,12.833-18.17,12.833H68.949c-7.904,0-12.42-7.698-8.727-14.782l70.833-124.521c0.205,0,0.205-0.102,0-0.309    L85.989,131.12c-4.414-8.007,0.309-14.475,8.726-14.475h66.83c7.493,0,13.652,4.21,18.477,12.524L225.909,208.727z" style="fill:#005A5F;"/><path d="M451.646,40.475L303.825,300.193v0.31l94.031,171.021c4.003,7.288,0.207,14.475-8.726,14.475H322.2    c-7.802,0-13.961-4.105-18.479-12.522l-94.853-172.974c3.387-5.955,52.867-93.213,148.645-261.979    c4.723-8.314,10.676-12.523,17.967-12.523h67.443C451.135,26.001,455.55,32.879,451.646,40.475L451.646,40.475z" style="fill:#D4D600;"/></g></g><g id="Layer_1"/></svg>
